{
  "asset": {
    "version": "2.0",
    "generator": "THREE.GLTFExporter"
  },
  "scenes": [
    {
      "nodes": [
        0,
        1,
        2
      ],
      "name": "Scene"
    }
  ],
  "scene": 0,
  "nodes": [
    {
      "matrix": [
        -0.3210292390211009,
        0.01564990878554795,
        -0.946940199683624,
        0,
        0.9140313753958083,
        0.26690879431995285,
        -0.3054612594088866,
        0,
        0.24796634088905023,
        -0.9635948404607717,
        -0.09999019141356058,
        0,
        5.603657245635986,
        2.62642502784729,
        -2.039539337158203,
        1
      ],
      "name": "Light"
    },
    {
      "matrix": [
        0.6859206666375535,
        -4.011331711240018e-9,
        -0.7276763385868836,
        0,
        0.6515582236083066,
        0.4452714146389205,
        0.6141703952861253,
        0,
        0.32401347963873484,
        -0.8953956629320512,
        0.30542086411130853,
        0,
        7.358891487121582,
        4.958309173583984,
        6.925790786743164,
        1
      ],
      "name": "Camera"
    },
    {
      "matrix": [
        1,
        0,
        0,
        0,
        0,
        1,
        0,
        0,
        0,
        0,
        1,
        0,
        -0.3446325361728668,
        0.480194091796875,
        -0.08354724943637848,
        1
      ],
      "name": "Sphere",
      "mesh": 0
    }
  ],
  "bufferViews": [
    {
      "buffer": 0,
      "byteOffset": 0,
      "byteLength": 3600,
      "target": 34962,
      "byteStride": 12
    },
    {
      "buffer": 0,
      "byteOffset": 3600,
      "byteLength": 3600,
      "target": 34962,
      "byteStride": 12
    },
    {
      "buffer": 0,
      "byteOffset": 7200,
      "byteLength": 2400,
      "target": 34962,
      "byteStride": 8
    },
    {
      "buffer": 0,
      "byteOffset": 9600,
      "byteLength": 840,
      "target": 34963
    }
  ],
  "buffers": [
    {
      "byteLength": 10440,
      "uri": "data:application/octet-stream;base64,"
    }
  ],
  "accessors": [
    {
      "bufferView": 0,
      "componentType": 5126,
      "count": 300,
      "max": [
        0.9510564208030701,
        2.226716995239258,
        0.9999998211860657
      ],
      "min": [
        -0.9510564208030701,
        -1,
        -0.9999999403953552
      ],
      "type": "VEC3"
    },
    {
      "bufferView": 1,
      "componentType": 5126,
      "count": 300,
      "max": [
        0.9828189015388489,
        0.44744712114334106,
        0.9348118305206299
      ],
      "min": [
        -0.9829680323600769,
        -0.97882080078125,
        -0.9348533749580383
      ],
      "type": "VEC3"
    },
    {
      "bufferView": 2,
      "componentType": 5126,
      "count": 300,
      "max": [
        1,
        1
      ],
      "min": [
        0,
        -0.002816915512084961
      ],
      "type": "VEC2"
    },
    {
      "bufferView": 3,
      "componentType": 5123,
      "count": 420,
      "max": [
        299
      ],
      "min": [
        0
      ],
      "type": "SCALAR"
    }
  ],
  "materials": [
    {
      "pbrMetallicRoughness": {
        "baseColorFactor": [
          0.6233965158462524,
          0.9428580403327942,
          1,
          1
        ],
        "metallicFactor": 0,
        "roughnessFactor": 0
      },
      "doubleSided": true,
      "name": "Material.001",
      "extras": {
        "gltfExtensions": {
          "KHR_materials_clearcoat": {
            "clearcoatFactor": 0.4042549431324005,
            "clearcoatRoughnessFactor": 0
          }
        }
      }
    }
  ],
  "meshes": [
    {
      "primitives": [
        {
          "mode": 4,
          "attributes": {
            "POSITION": 0,
            "NORMAL": 1,
            "TEXCOORD_0": 2
          },
          "indices": 3,
          "material": 0
        }
      ]
    }
  ]
}